<svg width="105" height="136" viewBox="0 0 105 136" fill="none" xmlns="http://www.w3.org/2000/svg">
<path d="M0 8C0 3.58172 3.58172 0 8 0H85C89.4183 0 93 3.58172 93 8V117C93 121.418 89.4183 125 85 125H8C3.58172 125 0 121.418 0 117V8Z" fill="#1B263B"/>
<rect x="22" y="15" width="62" height="4" rx="2" fill="#E0E1DD"/>
<circle cx="13" cy="17" r="3" fill="#D9D9D9"/>
<rect x="22" y="33" width="62" height="4" rx="2" fill="#E0E1DD"/>
<circle cx="13" cy="35" r="3" fill="#D9D9D9"/>
<rect x="22" y="49" width="62" height="4" rx="2" fill="#E0E1DD"/>
<circle cx="13" cy="51" r="3" fill="#D9D9D9"/>
<rect x="22" y="66" width="62" height="4" rx="2" fill="#E0E1DD"/>
<circle cx="13" cy="68" r="3" fill="#D9D9D9"/>
<path d="M105 111.5C105 125.031 94.031 136 80.5 136C66.969 136 56 125.031 56 111.5C56 97.969 66.969 87 80.5 87C94.031 87 105 97.969 105 111.5Z" fill="#D9D9D9"/>
<path d="M87.6909 120.818L89.912 121.793C90.372 121.995 90.9092 121.884 91.2522 121.517C92.8499 119.806 94.0397 117.755 94.7325 115.517C94.8819 115.034 94.7099 114.51 94.3037 114.21L92.3413 112.761C91.7808 112.349 91.4429 111.695 91.4429 110.999C91.4429 110.304 91.7807 109.65 92.34 109.238L94.3007 107.79C94.7068 107.49 94.8787 106.966 94.7293 106.483C94.0364 104.245 92.8458 102.193 91.2472 100.483C90.9038 100.115 90.3662 100.005 89.9062 100.207L87.6941 101.181C87.4173 101.304 87.1209 101.366 86.8214 101.366C85.7069 101.365 84.7721 100.524 84.6504 99.4149L84.3816 96.9988C84.3255 96.4949 83.9561 96.0823 83.4622 95.9719C82.3307 95.7191 81.176 95.5849 80.0168 95.5715C78.8288 95.5852 77.6729 95.7194 76.54 95.9718C76.0458 96.0819 75.6761 96.4946 75.62 96.9988L75.3514 99.4131C75.2742 100.104 74.8742 100.718 74.2737 101.067C73.6704 101.42 72.9388 101.462 72.3024 101.182L70.0907 100.209C69.6306 100.006 69.0931 100.117 68.7496 100.484C67.1511 102.195 65.9605 104.247 65.2675 106.485C65.118 106.968 65.2903 107.493 65.6968 107.792L67.6592 109.239C68.2193 109.652 68.5496 110.305 68.5496 111.001C68.5496 111.696 68.2193 112.35 67.66 112.762L65.6963 114.211C65.2904 114.511 65.1183 115.035 65.2673 115.518C65.959 117.758 67.149 119.812 68.7475 121.525C69.0906 121.892 69.6279 122.003 70.0881 121.801L72.3096 120.826C72.9429 120.549 73.6715 120.59 74.2715 120.936C74.8715 121.283 75.2718 121.894 75.3501 122.583L75.6167 124.996C75.6718 125.494 76.0333 125.904 76.52 126.02C78.8075 126.565 81.191 126.565 83.4785 126.02C83.9651 125.904 84.3266 125.494 84.3817 124.996L84.6488 122.58C84.725 121.889 85.108 121.276 85.7086 120.928C86.3091 120.581 87.0555 120.54 87.6909 120.818ZM80 116.143C77.1597 116.143 74.8571 113.84 74.8571 111C74.8571 108.16 77.1597 105.857 80 105.857C82.8403 105.857 85.1429 108.16 85.1429 111C85.1429 113.84 82.8403 116.143 80 116.143Z" fill="#1B263B"/>
</svg>
