<svg width="218" height="144" viewBox="0 0 218 144" fill="none" xmlns="http://www.w3.org/2000/svg">
<g clip-path="url(#clip0_175_732)">
<path d="M183.934 134.004C184.941 134.364 186.021 134.454 187.072 134.266C188.123 134.077 189.108 133.616 189.933 132.928C192.034 131.132 192.693 128.173 193.229 125.433L194.814 117.33L191.495 119.658C189.108 121.331 186.667 123.059 185.015 125.483C183.362 127.908 182.64 131.217 183.968 133.84" fill="#E6E6E6"/>
<path d="M184.218 143.814C183.882 141.322 183.537 138.798 183.772 136.28C183.981 134.043 184.651 131.858 186.016 130.067C186.74 129.117 187.621 128.304 188.62 127.664C188.88 127.497 189.12 127.917 188.861 128.083C187.133 129.195 185.796 130.837 185.044 132.772C184.213 134.925 184.08 137.271 184.224 139.557C184.311 140.939 184.494 142.312 184.679 143.685C184.694 143.747 184.685 143.812 184.654 143.868C184.623 143.923 184.573 143.965 184.513 143.984C184.452 144 184.386 143.992 184.332 143.96C184.277 143.928 184.236 143.876 184.219 143.814L184.218 143.814Z" fill="#F2F2F2"/>
<path d="M211.029 143.715C211.029 143.715 207.543 134.977 218 128.424L211.029 143.715Z" fill="#E6E6E6"/>
<path d="M206.742 143.556C206.742 143.556 205.679 137.328 197.449 137.381L206.742 143.556Z" fill="#E6E6E6"/>
<path d="M14.1289 67.0901H90.7575V12.0435H14.1289V67.0901Z" fill="white"/>
<path d="M92.3975 68.7604H12.489V10.3735H92.3975V68.7604ZM14.129 67.0903H90.7576V12.0436H14.129V67.0903Z" fill="#E6E6E6"/>
<path d="M7.34646 62.0315H6.78149V6.0874H83.4123V6.6672H7.34646V62.0315Z" fill="#3F3D56"/>
<path d="M0.565234 55.9441H0V0H76.6308V0.579799H0.565234V55.9441Z" fill="#3F3D56"/>
<path d="M52.4433 56.3789C61.4943 56.3789 68.8316 48.8518 68.8316 39.5667C68.8316 30.2815 61.4943 22.7544 52.4433 22.7544C43.3922 22.7544 36.0549 30.2815 36.0549 39.5667C36.0549 48.8518 43.3922 56.3789 52.4433 56.3789Z" fill="white"/>
<path d="M52.4434 56.6572C43.2561 56.6572 35.7817 48.9904 35.7817 39.5666C35.7817 30.1429 43.2561 22.4761 52.4434 22.4761C61.6307 22.4761 69.1051 30.1429 69.1051 39.5666C69.1051 48.9904 61.6307 56.6572 52.4434 56.6572ZM52.4434 23.0328C43.5576 23.0328 36.3284 30.4498 36.3284 39.5666C36.3284 48.6835 43.5576 56.1005 52.4434 56.1005C61.3293 56.1005 68.5584 48.6835 68.5584 39.5666C68.5584 30.4498 61.3293 23.0328 52.4434 23.0328Z" fill="#3F3D56"/>
<path d="M47.9141 31.2256V48.1976L61.5119 39.5955L47.9141 31.2256Z" fill="#778DA9"/>
<path d="M140.833 140.459H137.775L136.321 128.447H140.833L140.833 140.459Z" fill="#FFB7B7"/>
<path d="M141.613 143.477L131.753 143.477V143.35C131.753 142.313 132.157 141.319 132.877 140.586C133.597 139.853 134.573 139.441 135.591 139.441L141.613 139.442L141.613 143.477Z" fill="#2F2E41"/>
<path d="M167.104 135.906L164.541 137.604L156.892 128.341L160.676 125.836L167.104 135.906Z" fill="#FFB7B7"/>
<path d="M169.374 138.004L161.107 143.477L161.039 143.371C160.485 142.502 160.292 141.444 160.503 140.43C160.714 139.416 161.312 138.529 162.165 137.964L167.214 134.621L169.374 138.004Z" fill="#2F2E41"/>
<path d="M148.646 27.0838C150.202 27.0838 151.464 25.7992 151.464 24.2145C151.464 22.6298 150.202 21.3452 148.646 21.3452C147.09 21.3452 145.829 22.6298 145.829 24.2145C145.829 25.7992 147.09 27.0838 148.646 27.0838Z" fill="#2F2E41"/>
<path d="M145.987 25.2584C145.693 24.8621 145.505 24.3949 145.442 23.9026C145.378 23.4102 145.441 22.9095 145.625 22.4495C145.808 21.9894 146.106 21.5857 146.489 21.2778C146.871 20.9699 147.326 20.7684 147.808 20.693C147.417 20.682 147.027 20.7542 146.665 20.9048C146.303 21.0554 145.976 21.2812 145.704 21.5679C145.432 21.8545 145.222 22.1956 145.087 22.5695C144.952 22.9434 144.894 23.3419 144.919 23.7396C144.943 24.1373 145.049 24.5254 145.229 24.8792C145.408 25.2331 145.659 25.5449 145.963 25.7948C146.268 26.0447 146.621 26.2272 146.999 26.3307C147.376 26.4342 147.771 26.4564 148.158 26.3959C147.735 26.3848 147.321 26.2767 146.945 26.0798C146.569 25.8829 146.241 25.6021 145.987 25.2584Z" fill="#2F2E41"/>
<path d="M145.727 42.7962C150.298 42.7962 154.004 39.0225 154.004 34.3676C154.004 29.7126 150.298 25.939 145.727 25.939C141.156 25.939 137.451 29.7126 137.451 34.3676C137.451 39.0225 141.156 42.7962 145.727 42.7962Z" fill="#2F2E41"/>
<path d="M138.016 31.2972C138.911 29.311 140.53 27.7569 142.529 26.9629C144.529 26.1689 146.753 26.1971 148.733 27.0415C148.649 26.999 148.566 26.9557 148.481 26.9157C146.486 25.983 144.209 25.8955 142.151 26.6725C140.092 27.4494 138.421 29.0272 137.506 31.0588C136.59 33.0903 136.504 35.4091 137.267 37.5051C138.03 39.6012 139.579 41.3027 141.574 42.2354C141.659 42.2754 141.746 42.3113 141.832 42.3481C139.913 41.3696 138.442 39.6702 137.73 37.6083C137.018 35.5465 137.12 33.2836 138.016 31.2972Z" fill="#2F2E41"/>
<path d="M155.77 78.5967L161.701 109.932L169.486 133.339L156.882 135.982L144.648 89.1675L144.277 134.094L128.336 134.471L132.044 107.667L136.545 77.4048L155.77 78.5967Z" fill="#2F2E41"/>
<path d="M145.753 42.7381C148.825 42.7381 151.314 40.2027 151.314 37.0751C151.314 33.9475 148.825 31.4121 145.753 31.4121C142.682 31.4121 140.193 33.9475 140.193 37.0751C140.193 40.2027 142.682 42.7381 145.753 42.7381Z" fill="#FFB8B8"/>
<path d="M150.95 45.5337L142.424 45.7513L136.492 48.7715L137.234 66.138L135.796 79.4368C135.796 79.4368 135.259 81.5211 138.966 83.4088C140.152 84.0128 141.68 84.269 143.21 84.3379C146.342 84.4413 149.415 83.4518 151.92 81.5332C152.697 80.9529 153.559 80.5651 154.287 80.8618C156.14 81.6168 156.511 79.3516 156.511 79.3516L154.287 68.4032L157.623 57.9922L154.253 46.8162L150.95 45.5337Z" fill="#778DA9"/>
<path d="M140.62 31.1538V37.459H142.054L143.879 35.4679L143.635 37.459H149.972L149.582 35.4679L150.364 37.459H151.374V31.1538H140.62Z" fill="#2F2E41"/>
<path d="M152.487 35.5046C152.471 35.3339 152.393 35.1754 152.268 35.0599C152.144 34.9444 151.982 34.8802 151.813 34.8799H151.133V39.4478H151.813C151.982 39.4474 152.144 39.3833 152.268 39.2678C152.393 39.1523 152.471 38.9937 152.487 38.823C152.826 38.73 153.126 38.5258 153.339 38.2419C153.553 37.9581 153.669 37.6104 153.669 37.2528V37.0749C153.669 36.7172 153.553 36.3696 153.339 36.0857C153.126 35.8019 152.826 35.5977 152.487 35.5046Z" fill="#778DA9"/>
<path d="M140.189 38.8805H139.436C139.226 38.8805 139.018 38.8384 138.824 38.7566C138.631 38.6748 138.454 38.5549 138.306 38.4037C138.157 38.2526 138.04 38.0731 137.959 37.8756C137.879 37.6781 137.838 37.4664 137.838 37.2526V37.0747C137.838 36.8609 137.879 36.6493 137.959 36.4517C138.04 36.2542 138.157 36.0748 138.306 35.9236C138.454 35.7724 138.631 35.6525 138.824 35.5707C139.018 35.4889 139.226 35.4468 139.436 35.4468H140.189V38.8805Z" fill="#778DA9"/>
<path d="M140.374 39.4478H139.694C139.513 39.4478 139.34 39.3747 139.213 39.2448C139.085 39.1148 139.013 38.9385 139.013 38.7547V35.5729C139.013 35.3891 139.085 35.2129 139.213 35.0829C139.34 34.9529 139.513 34.8799 139.694 34.8799H140.374V39.4478Z" fill="#778DA9"/>
<path d="M152.123 35.6861H151.624C151.624 32.0982 149.013 29.1794 145.805 29.1794C142.596 29.1794 139.985 32.0982 139.985 35.6861H139.487C139.487 31.8182 142.321 28.6714 145.805 28.6714C149.288 28.6714 152.123 31.8182 152.123 35.6861Z" fill="#778DA9"/>
<path d="M131.801 88.6162C132.101 88.4493 132.361 88.2175 132.564 87.9371C132.766 87.6566 132.906 87.3343 132.973 86.9928C133.04 86.6514 133.033 86.2991 132.952 85.9609C132.871 85.6226 132.718 85.3065 132.504 85.0349L135.073 80.2619L132.605 77.9648L129.071 84.7571C128.647 85.1535 128.38 85.6945 128.321 86.2777C128.263 86.8609 128.416 87.4457 128.753 87.9214C129.089 88.3971 129.585 88.7305 130.147 88.8586C130.709 88.9866 131.297 88.9004 131.801 88.6162Z" fill="#FFB7B7"/>
<path d="M138.346 48.7714L137.348 48.2734C137.348 48.2734 135.009 48.7714 134.268 50.2815C133.527 51.7916 131.673 67.2704 131.673 67.2704L130.19 77.4638C130.19 77.4638 129.078 77.4638 129.078 78.5964C129.078 79.729 127.595 82.7493 128.707 82.7493C129.819 82.7493 134.268 82.7493 135.01 81.9942C135.751 81.2391 137.234 78.2189 136.863 77.8413C136.492 77.4638 135.751 77.4638 135.751 77.4638L136.794 67.2444L138.346 48.7714Z" fill="#778DA9"/>
<path d="M158.27 85.0682C158.021 84.8295 157.826 84.538 157.7 84.2145C157.574 83.8909 157.519 83.5431 157.539 83.1955C157.558 82.8479 157.653 82.5089 157.815 82.2026C157.978 81.8962 158.204 81.6298 158.479 81.4222L157.18 76.1426L160.138 74.5562L161.87 82.0382C162.181 82.531 162.305 83.1231 162.217 83.7024C162.129 84.2818 161.835 84.808 161.391 85.1815C160.947 85.555 160.385 85.7498 159.809 85.7289C159.234 85.708 158.686 85.4729 158.27 85.0682Z" fill="#FFB7B7"/>
<path d="M154.549 63.9044L155.592 74.1238C155.592 74.1238 154.851 74.1238 154.48 74.5013C154.109 74.8789 155.592 77.8991 156.334 78.6542C157.075 79.4092 161.524 79.4092 162.636 79.4092C163.748 79.4092 162.265 76.389 162.265 75.2564C162.265 74.1238 161.153 74.1238 161.153 74.1238L159.67 63.9304C159.67 63.9304 157.817 50.1217 157.075 48.6116C156.334 47.1014 153.995 46.6035 153.995 46.6035L152.997 47.1015L154.549 63.9044Z" fill="#778DA9"/>
<path d="M134.218 85.18L134.17 85.211L133.339 83.876C133.275 83.7745 133.193 83.6867 133.097 83.6176C133 83.5485 132.891 83.4995 132.776 83.4732C132.661 83.447 132.542 83.4441 132.425 83.4648C132.309 83.4854 132.198 83.5292 132.098 83.5936L129.321 85.388C129.12 85.518 128.978 85.724 128.926 85.9609C128.874 86.1977 128.916 86.4459 129.044 86.6508L133.606 93.9745C133.67 94.076 133.752 94.1638 133.848 94.2329C133.945 94.302 134.054 94.3511 134.169 94.3773C134.284 94.4035 134.403 94.4064 134.52 94.3858C134.636 94.3651 134.747 94.3214 134.847 94.257L137.624 92.4626C137.825 92.3326 137.967 92.1265 138.019 91.8896C138.071 91.6528 138.029 91.4046 137.901 91.1997L134.762 86.1612L134.81 86.1303L134.218 85.18Z" fill="#3F3D56"/>
<path d="M133.18 83.9857L137.736 91.2987C137.832 91.4517 137.863 91.637 137.824 91.8139C137.786 91.9908 137.679 92.1447 137.529 92.2418L134.738 94.0448C134.588 94.1419 134.406 94.1742 134.233 94.1346C134.059 94.0951 133.908 93.9869 133.812 93.8338L129.257 86.5209C129.161 86.3679 129.129 86.1825 129.168 86.0056C129.207 85.8288 129.313 85.6749 129.464 85.5778L129.802 85.3591C129.811 85.4114 129.833 85.4607 129.866 85.5025C129.898 85.5442 129.94 85.5773 129.988 85.5987C130.036 85.6201 130.088 85.6292 130.14 85.6251C130.192 85.6211 130.243 85.6041 130.287 85.5757L131.878 84.5477C131.922 84.5191 131.958 84.48 131.984 84.4337C132.01 84.3874 132.024 84.3353 132.026 84.2821C132.027 84.2289 132.015 84.1762 131.992 84.1285C131.969 84.0809 131.934 84.0398 131.892 84.009L132.254 83.7748C132.404 83.6777 132.586 83.6454 132.76 83.6849C132.934 83.7245 133.085 83.8327 133.18 83.9857Z" fill="#778DA9"/>
<path d="M215.729 144H111.592C111.52 144 111.45 143.971 111.399 143.919C111.348 143.866 111.319 143.796 111.319 143.722C111.319 143.648 111.348 143.577 111.399 143.525C111.45 143.473 111.52 143.443 111.592 143.443H215.729C215.801 143.443 215.871 143.473 215.922 143.525C215.973 143.577 216.002 143.648 216.002 143.722C216.002 143.796 215.973 143.866 215.922 143.919C215.871 143.971 215.801 144 215.729 144Z" fill="#CBCBCB"/>
</g>
<defs>
<clipPath id="clip0_175_732">
<rect width="218" height="144" fill="white"/>
</clipPath>
</defs>
</svg>
