<svg width="152" height="36" viewBox="0 0 152 36" fill="none" xmlns="http://www.w3.org/2000/svg">
<path d="M48.456 9.152V12.44H41.592V15.992H46.728V19.184H41.592V26H37.488V9.152H48.456ZM63.237 19.088C63.237 19.472 63.213 19.872 63.165 20.288H53.877C53.941 21.12 54.205 21.76 54.669 22.208C55.149 22.64 55.733 22.856 56.421 22.856C57.445 22.856 58.157 22.424 58.557 21.56H62.925C62.701 22.44 62.293 23.232 61.701 23.936C61.125 24.64 60.397 25.192 59.517 25.592C58.637 25.992 57.653 26.192 56.565 26.192C55.253 26.192 54.085 25.912 53.061 25.352C52.037 24.792 51.237 23.992 50.661 22.952C50.085 21.912 49.797 20.696 49.797 19.304C49.797 17.912 50.077 16.696 50.637 15.656C51.213 14.616 52.013 13.816 53.037 13.256C54.061 12.696 55.237 12.416 56.565 12.416C57.861 12.416 59.013 12.688 60.021 13.232C61.029 13.776 61.813 14.552 62.373 15.56C62.949 16.568 63.237 17.744 63.237 19.088ZM59.037 18.008C59.037 17.304 58.797 16.744 58.317 16.328C57.837 15.912 57.237 15.704 56.517 15.704C55.829 15.704 55.245 15.904 54.765 16.304C54.301 16.704 54.013 17.272 53.901 18.008H59.037ZM70.8501 26.192C69.6821 26.192 68.6421 25.992 67.7301 25.592C66.8181 25.192 66.0981 24.648 65.5701 23.96C65.0421 23.256 64.7461 22.472 64.6821 21.608H68.7381C68.7861 22.072 69.0021 22.448 69.3861 22.736C69.7701 23.024 70.2421 23.168 70.8021 23.168C71.3141 23.168 71.7061 23.072 71.9781 22.88C72.2661 22.672 72.4101 22.408 72.4101 22.088C72.4101 21.704 72.2101 21.424 71.8101 21.248C71.4101 21.056 70.7621 20.848 69.8661 20.624C68.9061 20.4 68.1061 20.168 67.4661 19.928C66.8261 19.672 66.2741 19.28 65.8101 18.752C65.3461 18.208 65.1141 17.48 65.1141 16.568C65.1141 15.8 65.3221 15.104 65.7381 14.48C66.1701 13.84 66.7941 13.336 67.6101 12.968C68.4421 12.6 69.4261 12.416 70.5621 12.416C72.2421 12.416 73.5621 12.832 74.5221 13.664C75.4981 14.496 76.0581 15.6 76.2021 16.976H72.4101C72.3461 16.512 72.1381 16.144 71.7861 15.872C71.4501 15.6 71.0021 15.464 70.4421 15.464C69.9621 15.464 69.5941 15.56 69.3381 15.752C69.0821 15.928 68.9541 16.176 68.9541 16.496C68.9541 16.88 69.1541 17.168 69.5541 17.36C69.9701 17.552 70.6101 17.744 71.4741 17.936C72.4661 18.192 73.2741 18.448 73.8981 18.704C74.5221 18.944 75.0661 19.344 75.5301 19.904C76.0101 20.448 76.2581 21.184 76.2741 22.112C76.2741 22.896 76.0501 23.6 75.6021 24.224C75.1701 24.832 74.5381 25.312 73.7061 25.664C72.8901 26.016 71.9381 26.192 70.8501 26.192ZM86.2489 22.52V26H84.1609C82.6729 26 81.5129 25.64 80.6809 24.92C79.8489 24.184 79.4329 22.992 79.4329 21.344V16.016H77.8009V12.608H79.4329V9.344H83.5369V12.608H86.2249V16.016H83.5369V21.392C83.5369 21.792 83.6329 22.08 83.8249 22.256C84.0169 22.432 84.3369 22.52 84.7849 22.52H86.2489Z" fill="#0D1B2A"/>
<path d="M108.712 12.608L105.088 26H100.552L98.44 17.312L96.256 26H91.744L88.096 12.608H92.2L94.096 22.184L96.352 12.608H100.696L102.976 22.136L104.848 12.608H108.712ZM114.381 14.84C114.861 14.104 115.461 13.528 116.181 13.112C116.901 12.68 117.701 12.464 118.581 12.464V16.808H117.453C116.429 16.808 115.661 17.032 115.149 17.48C114.637 17.912 114.381 18.68 114.381 19.784V26H110.277V12.608H114.381V14.84ZM119.727 19.28C119.727 17.904 119.983 16.696 120.495 15.656C121.023 14.616 121.735 13.816 122.631 13.256C123.527 12.696 124.527 12.416 125.631 12.416C126.575 12.416 127.399 12.608 128.103 12.992C128.823 13.376 129.375 13.88 129.759 14.504V12.608H133.863V26H129.759V24.104C129.359 24.728 128.799 25.232 128.079 25.616C127.375 26 126.551 26.192 125.607 26.192C124.519 26.192 123.527 25.912 122.631 25.352C121.735 24.776 121.023 23.968 120.495 22.928C119.983 21.872 119.727 20.656 119.727 19.28ZM129.759 19.304C129.759 18.28 129.471 17.472 128.895 16.88C128.335 16.288 127.647 15.992 126.831 15.992C126.015 15.992 125.319 16.288 124.743 16.88C124.183 17.456 123.903 18.256 123.903 19.28C123.903 20.304 124.183 21.12 124.743 21.728C125.319 22.32 126.015 22.616 126.831 22.616C127.647 22.616 128.335 22.32 128.895 21.728C129.471 21.136 129.759 20.328 129.759 19.304ZM140.936 14.504C141.336 13.88 141.888 13.376 142.592 12.992C143.296 12.608 144.12 12.416 145.064 12.416C146.168 12.416 147.168 12.696 148.064 13.256C148.96 13.816 149.664 14.616 150.176 15.656C150.704 16.696 150.968 17.904 150.968 19.28C150.968 20.656 150.704 21.872 150.176 22.928C149.664 23.968 148.96 24.776 148.064 25.352C147.168 25.912 146.168 26.192 145.064 26.192C144.136 26.192 143.312 26 142.592 25.616C141.888 25.232 141.336 24.736 140.936 24.128V32.384H136.832V12.608H140.936V14.504ZM146.792 19.28C146.792 18.256 146.504 17.456 145.928 16.88C145.368 16.288 144.672 15.992 143.84 15.992C143.024 15.992 142.328 16.288 141.752 16.88C141.192 17.472 140.912 18.28 140.912 19.304C140.912 20.328 141.192 21.136 141.752 21.728C142.328 22.32 143.024 22.616 143.84 22.616C144.656 22.616 145.352 22.32 145.928 21.728C146.504 21.12 146.792 20.304 146.792 19.28Z" fill="#778DA9"/>
<path d="M14.0625 24.2499C14.0625 23.7321 13.6428 23.3124 13.125 23.3124C12.6072 23.3124 12.1875 23.7321 12.1875 24.2499C12.1875 24.7678 12.6072 25.1874 13.125 25.1874C13.6428 25.1874 14.0625 24.7678 14.0625 24.2499Z" fill="#1C274C"/>
<path fill-rule="evenodd" clip-rule="evenodd" d="M10.8405 12.4275H19.1595C23.378 12.4275 25.4872 12.4275 26.6721 13.661C27.8569 14.8946 27.5781 16.8004 27.0206 20.6119L26.4919 24.2264C26.0546 27.2154 25.8361 28.7099 24.7146 29.6049C23.5931 30.4999 21.939 30.4999 18.6308 30.4999H11.3692C8.061 30.4999 6.40691 30.4999 5.28543 29.6049C4.16394 28.7099 3.94533 27.2154 3.5081 24.2264L2.97939 20.6119C2.42185 16.8004 2.14309 14.8946 3.3279 13.661C4.51271 12.4275 6.62198 12.4275 10.8405 12.4275ZM15.9375 16.1249C15.9375 15.6071 15.5177 15.1874 15 15.1874C14.4823 15.1874 14.0625 15.6071 14.0625 16.1249V21.5975C13.7692 21.4939 13.4537 21.4374 13.125 21.4374C11.5717 21.4374 10.3125 22.6966 10.3125 24.2499C10.3125 25.8033 11.5717 27.0624 13.125 27.0624C14.6783 27.0624 15.9375 25.8033 15.9375 24.2499V19.6496C16.7753 20.3291 17.8271 20.8124 18.75 20.8124C19.2677 20.8124 19.6875 20.3928 19.6875 19.8749C19.6875 19.3571 19.2677 18.9374 18.75 18.9374C18.3682 18.9374 17.6431 18.6641 16.9794 18.0753C16.3317 17.5008 15.9375 16.7983 15.9375 16.1249Z" fill="#0D1B2A"/>
<path opacity="0.4" d="M10.6369 5.50001H19.3621C19.6526 5.49993 19.8755 5.49988 20.0702 5.51893C21.455 5.6544 22.5885 6.48697 23.0691 7.60847H6.92993C7.41057 6.48697 8.54401 5.6544 9.92878 5.51893C10.1235 5.49988 10.3463 5.49993 10.6369 5.50001Z" fill="#778DA9"/>
<path opacity="0.7" d="M7.88775 8.90332C6.14947 8.90332 4.72413 9.95301 4.24847 11.3456C4.23856 11.3746 4.22906 11.4038 4.21997 11.4331C4.71766 11.2824 5.23561 11.1839 5.75995 11.1167C7.11041 10.9436 8.81708 10.9436 10.7996 10.9438H19.4147C21.3972 10.9436 23.104 10.9436 24.4544 11.1167C24.9787 11.1839 25.4967 11.2824 25.9944 11.4331C25.9854 11.4038 25.9757 11.3746 25.9659 11.3456C25.4902 9.95301 24.0649 8.90332 22.3266 8.90332H7.88775Z" fill="#778DA9"/>
</svg>
