<svg width="258" height="199" viewBox="0 0 258 199" fill="none" xmlns="http://www.w3.org/2000/svg">
<g clip-path="url(#clip0_175_1375)">
<path d="M78.8235 168.41C79.7883 158.233 85.5099 148.085 94.5868 144.552C91.213 155.087 91.4718 166.545 95.3174 176.899C96.8141 180.886 98.8715 185.156 97.6401 189.243C96.8739 191.786 94.9041 193.767 92.6808 195.031C90.4574 196.294 87.9727 196.932 85.5189 197.558L85.0431 197.995C80.9171 188.743 77.8587 178.588 78.8235 168.41Z" fill="#F0F0F0"/>
<path d="M94.6819 144.741C89.4949 151.19 86.3612 159.204 85.726 167.644C85.5587 169.458 85.6629 171.289 86.0347 173.069C86.45 174.79 87.2935 176.363 88.4778 177.623C89.5597 178.822 90.7976 179.915 91.5851 181.371C91.9778 182.122 92.2158 182.953 92.2836 183.809C92.3514 184.664 92.2474 185.525 91.9784 186.335C91.3579 188.372 90.0823 190.052 88.7809 191.649C87.3359 193.422 85.8084 195.239 85.2294 197.556C85.1592 197.836 84.7515 197.705 84.8215 197.425C85.8289 193.394 89.4522 191.027 91.1234 187.378C91.9032 185.675 92.2024 183.713 91.3958 181.956C90.6905 180.42 89.4149 179.292 88.3096 178.088C87.1372 176.877 86.2632 175.38 85.7639 173.729C85.3076 171.975 85.1368 170.151 85.259 168.337C85.4725 164.246 86.2928 160.217 87.6898 156.396C89.2614 152.026 91.5282 147.972 94.3923 144.41C94.5697 144.19 94.8581 144.522 94.6819 144.741Z" fill="white"/>
<path d="M85.7788 164.913C84.4543 164.608 83.2754 163.815 82.4527 162.676C81.63 161.537 81.217 160.125 81.2875 158.694C81.2909 158.635 81.3156 158.581 81.3563 158.541C81.3971 158.502 81.4508 158.48 81.506 158.482C81.5613 158.484 81.6138 158.508 81.6526 158.549C81.6914 158.591 81.7133 158.647 81.7138 158.706C81.6458 160.038 82.0306 161.353 82.7988 162.412C83.5669 163.472 84.6678 164.206 85.9028 164.482C86.1711 164.542 86.0456 164.973 85.7788 164.913Z" fill="white"/>
<path d="M87.8535 177.092C90.1982 175.53 91.9 173.091 92.6198 170.261C92.6909 169.981 93.0986 170.112 93.0276 170.392C92.2734 173.336 90.4975 175.87 88.0543 177.489C87.8213 177.644 87.6218 177.245 87.8535 177.092Z" fill="white"/>
<path d="M89.6661 152.443C90.1553 152.674 90.6911 152.773 91.2254 152.73C91.7596 152.688 92.2756 152.506 92.727 152.201C92.958 152.044 93.1572 152.443 92.9277 152.599C92.4275 152.934 91.8575 153.134 91.2673 153.182C90.6771 153.23 90.0848 153.124 89.5421 152.874C89.4891 152.855 89.4449 152.815 89.4185 152.763C89.3922 152.711 89.3856 152.65 89.4002 152.593C89.4168 152.536 89.4541 152.488 89.5039 152.46C89.5537 152.432 89.612 152.426 89.6661 152.443Z" fill="white"/>
<path d="M122.889 161.974C122.747 162.077 122.605 162.179 122.464 162.286C120.567 163.675 118.779 165.224 117.12 166.919C116.989 167.048 116.859 167.18 116.733 167.313C112.775 171.441 109.576 176.311 107.3 181.674C106.396 183.809 105.646 186.014 105.059 188.269C104.247 191.384 103.601 194.829 101.914 197.403C101.741 197.673 101.552 197.932 101.348 198.178L85.5835 198.575C85.5472 198.557 85.5109 198.543 85.4745 198.524L84.8457 198.571C84.8683 198.452 84.8942 198.33 84.9169 198.211C84.9297 198.142 84.9461 198.073 84.959 198.005C84.9686 197.959 84.9785 197.913 84.9848 197.871C84.9879 197.855 84.9913 197.84 84.9945 197.829C85.0008 197.787 85.0108 197.748 85.0172 197.71C85.1601 197.025 85.3078 196.34 85.4603 195.655C85.4602 195.651 85.4602 195.651 85.4636 195.647C86.6382 190.43 88.235 185.271 90.5214 180.533C90.5903 180.39 90.6589 180.244 90.7349 180.101C91.7767 177.971 92.9814 175.935 94.337 174.012C95.0824 172.962 95.8777 171.952 96.7197 170.987C98.8998 168.498 101.437 166.387 104.237 164.731C109.82 161.432 116.339 160.057 122.425 161.834C122.581 161.879 122.733 161.925 122.889 161.974Z" fill="#F0F0F0"/>
<path d="M122.858 162.187C115.045 164.033 107.981 168.436 102.669 174.77C101.502 176.113 100.543 177.641 99.8268 179.299C99.1782 180.938 98.9564 182.73 99.1846 184.491C99.3661 186.136 99.732 187.798 99.5321 189.461C99.4178 190.311 99.1349 191.126 98.7019 191.853C98.2689 192.579 97.6956 193.2 97.0197 193.676C95.3646 194.907 93.3898 195.436 91.4416 195.882C89.2786 196.378 87.0244 196.856 85.2431 198.337C85.0273 198.517 84.7766 198.152 84.9921 197.973C88.0912 195.396 92.3314 195.814 95.7435 193.964C97.3356 193.1 98.6914 191.725 99.0475 189.808C99.3589 188.133 98.9829 186.42 98.7855 184.755C98.5392 183.041 98.6933 181.29 99.2346 179.654C99.8689 177.962 100.771 176.398 101.902 175.026C104.401 171.896 107.35 169.201 110.64 167.04C114.383 164.551 118.501 162.758 122.815 161.738C123.082 161.675 123.124 162.124 122.858 162.187Z" fill="white"/>
<path d="M104.266 172.624C103.382 171.537 102.892 170.154 102.884 168.72C102.876 167.287 103.349 165.897 104.221 164.799C104.398 164.577 104.732 164.858 104.554 165.079C103.741 166.1 103.3 167.395 103.31 168.73C103.321 170.065 103.782 171.352 104.61 172.359C104.79 172.578 104.445 172.842 104.266 172.624Z" fill="white"/>
<path d="M98.9885 183.669C101.75 183.915 104.497 183.051 106.683 181.25C106.899 181.072 107.15 181.436 106.934 181.615C104.656 183.484 101.795 184.377 98.9223 184.115C98.6485 184.089 98.7162 183.644 98.9885 183.669Z" fill="white"/>
<path d="M114.469 165.143C114.728 165.638 115.1 166.058 115.55 166.365C116.001 166.671 116.517 166.855 117.051 166.898C117.325 166.92 117.257 167.365 116.985 167.344C116.395 167.293 115.826 167.089 115.327 166.752C114.828 166.415 114.416 165.953 114.125 165.408C114.093 165.359 114.08 165.299 114.089 165.241C114.098 165.182 114.127 165.129 114.171 165.093C114.217 165.058 114.274 165.044 114.33 165.053C114.386 165.062 114.436 165.094 114.469 165.143Z" fill="white"/>
<path d="M160.756 158.649C160.493 158.649 160.231 158.6 159.984 158.505L155.333 156.729L155.335 156.724C154.811 156.477 154.395 156.029 154.17 155.472C153.945 154.914 153.928 154.287 154.122 153.716L166.849 116.441C167.255 115.255 168.074 114.279 169.139 113.712C170.204 113.146 171.434 113.033 172.576 113.396C173.718 113.76 174.684 114.572 175.277 115.666C175.869 116.76 176.043 118.053 175.762 119.278C175.721 119.451 175.673 119.621 175.616 119.789L162.888 157.064C162.729 157.527 162.44 157.928 162.058 158.212C161.677 158.495 161.222 158.648 160.756 158.649Z" fill="#778DA9"/>
<path d="M190.865 198.524H186.082C185.481 198.523 184.904 198.27 184.479 197.82C184.053 197.37 183.814 196.761 183.813 196.125V153.965C183.814 153.328 184.053 152.719 184.479 152.269C184.904 151.819 185.481 151.566 186.082 151.565H190.865C191.467 151.566 192.043 151.819 192.469 152.269C192.894 152.719 193.133 153.328 193.134 153.965V196.125C193.133 196.761 192.894 197.37 192.469 197.82C192.043 198.27 191.467 198.523 190.865 198.524Z" fill="#778DA9"/>
<path d="M180.108 198.524H175.325C174.724 198.523 174.147 198.27 173.722 197.82C173.297 197.37 173.057 196.761 173.057 196.125V153.965C173.057 153.328 173.297 152.719 173.722 152.269C174.147 151.819 174.724 151.566 175.325 151.565H180.108C180.71 151.566 181.287 151.819 181.712 152.269C182.137 152.719 182.376 153.328 182.377 153.965V196.125C182.376 196.761 182.137 197.37 181.712 197.82C181.287 198.27 180.71 198.523 180.108 198.524Z" fill="#778DA9"/>
<path d="M182.953 105.682C192.081 105.682 199.481 97.856 199.481 88.2026C199.481 78.5492 192.081 70.7236 182.953 70.7236C173.825 70.7236 166.425 78.5492 166.425 88.2026C166.425 97.856 173.825 105.682 182.953 105.682Z" fill="#778DA9"/>
<path d="M184.885 95.5401C183.813 95.5087 182.48 95.4694 181.453 94.6758C181.147 94.4298 180.896 94.1161 180.716 93.7565C180.537 93.397 180.435 93.0004 180.416 92.5945C180.397 92.306 180.442 92.017 180.546 91.7498C180.651 91.4827 180.813 91.2447 181.019 91.0546C181.555 90.5751 182.339 90.4627 183.183 90.7251L182.308 83.9646L182.95 83.8716L183.979 91.8194L183.442 91.5591C182.821 91.2576 181.967 91.1041 181.437 91.5781C181.307 91.702 181.205 91.8559 181.141 92.0281C181.076 92.2002 181.049 92.3858 181.063 92.5704C181.079 92.8725 181.156 93.1675 181.289 93.4353C181.423 93.703 181.609 93.9373 181.835 94.1222C182.635 94.7397 183.697 94.8194 184.903 94.855L184.885 95.5401Z" fill="#2F2E41"/>
<path d="M179.132 84.5474H175.642V85.2328H179.132V84.5474Z" fill="#2F2E41"/>
<path d="M190.151 84.5474H186.66V85.2328H190.151V84.5474Z" fill="#2F2E41"/>
<path d="M205.263 158.355C204.808 158.354 204.364 158.209 203.988 157.939C203.612 157.668 203.321 157.285 203.153 156.838L189.357 119.991C189.131 119.389 189.02 118.746 189.03 118.099C189.039 117.452 189.169 116.813 189.413 116.219C189.656 115.625 190.007 115.088 190.446 114.637C190.886 114.187 191.405 113.832 191.974 113.594C192.543 113.356 193.151 113.239 193.763 113.249C194.374 113.259 194.978 113.396 195.54 113.653C196.102 113.91 196.61 114.282 197.036 114.747C197.462 115.211 197.797 115.76 198.022 116.362L211.818 153.21C211.937 153.524 211.991 153.861 211.977 154.199C211.956 154.661 211.811 155.108 211.557 155.485C211.303 155.861 210.951 156.153 210.544 156.323L206.097 158.186C205.832 158.297 205.549 158.355 205.263 158.355Z" fill="#778DA9"/>
<path d="M195.096 142.52L199.632 120.815C199.632 118.769 198.863 116.806 197.495 115.359C196.127 113.913 194.271 113.1 192.336 113.1H172.575C170.64 113.1 168.785 113.913 167.417 115.359C166.048 116.806 165.28 118.769 165.28 120.815L170.742 142.355C167.6 142.789 165.28 144.311 165.28 146.123L173.058 161.594L193.15 161.767L199.632 146.123C199.632 144.495 197.757 143.101 195.096 142.52Z" fill="#2F2E41"/>
<path d="M201.228 81.9158C200.406 77.4866 198.158 73.4954 194.867 70.6206C191.577 67.7457 187.446 66.1647 183.178 66.1462C178.91 66.1276 174.767 67.6727 171.454 70.5189C168.141 73.365 165.863 77.3366 165.006 81.7584C163.544 82.3869 162.334 83.5333 161.583 85.0014C160.832 86.4694 160.587 88.1678 160.89 89.8058C161.193 91.4437 162.025 92.9194 163.243 93.9801C164.462 95.0409 165.991 95.6207 167.569 95.6204V81.2259C167.187 81.2283 166.805 81.2648 166.428 81.3349C167.348 77.3865 169.494 73.8787 172.523 71.3733C175.551 68.8679 179.288 67.51 183.133 67.5169C186.978 67.5239 190.71 68.8954 193.73 71.4117C196.751 73.928 198.886 77.4436 199.792 81.3954C199.314 81.2837 198.825 81.2269 198.335 81.2259V95.6204C199.882 95.6214 201.384 95.0646 202.591 94.0418C203.799 93.0191 204.64 91.5915 204.978 89.9947C205.315 88.3979 205.127 86.7273 204.445 85.2586C203.764 83.7898 202.629 82.6107 201.228 81.9158Z" fill="#2F2E41"/>
<path d="M191.581 80.183C188.611 78.6238 185.28 77.9984 181.984 78.3809C180.187 78.5741 178.398 78.8718 176.608 79.1289C175.108 79.3444 173.405 79.6295 172.032 78.7682C169.701 77.3056 169.286 73.7565 169.782 71.1993C170.042 69.7969 170.584 68.4702 171.372 67.3092C172.16 66.1483 173.175 65.1806 174.349 64.4718C175.744 63.6772 177.304 63.2629 178.889 63.2661C180.473 63.2694 182.032 63.6902 183.424 64.4906C183.537 64.5554 183.668 64.5724 183.792 64.5381C183.915 64.5038 184.022 64.4209 184.09 64.3062C185.827 61.8211 188.183 59.7153 190.954 58.6561C193.515 57.7158 196.278 57.5753 198.913 58.2514C201.588 58.9147 204.085 60.214 206.215 62.0504C208.432 64.01 210.239 66.4367 211.52 69.1758C214.377 75.0983 215.038 81.8957 214.823 88.4529C214.698 92.2689 214.295 96.0662 213.896 99.8587C213.696 101.757 213.496 103.656 213.333 105.559C213.145 107.187 213.142 108.833 213.325 110.462C213.512 111.994 214.13 113.431 215.098 114.588C216.024 115.617 217.189 116.372 218.477 116.776C221.377 117.728 224.446 116.919 227.032 115.392C227.721 114.981 228.385 114.526 229.022 114.029C229.522 113.643 229.038 112.75 228.531 113.142C226.075 115.04 223.017 116.598 219.894 116.072C218.566 115.871 217.316 115.284 216.286 114.375C215.217 113.356 214.516 111.974 214.305 110.468C214.031 108.825 214.169 107.125 214.312 105.475C214.477 103.572 214.677 101.674 214.877 99.7749C215.279 95.9548 215.683 92.1292 215.801 88.2849C216.002 81.7062 215.296 74.9332 212.506 68.9653C211.243 66.1815 209.463 63.6945 207.274 61.6519C205.172 59.7342 202.705 58.3173 200.04 57.4972C197.427 56.6754 194.656 56.5886 192.002 57.2454C189.172 58.0407 186.62 59.686 184.656 61.9823C184.155 62.5556 183.686 63.1582 183.25 63.7872L183.915 63.6028C182.595 62.8399 181.136 62.385 179.636 62.2688C178.136 62.1526 176.63 62.3777 175.219 62.9291C173.849 63.4838 172.609 64.3446 171.582 65.4527C170.556 66.5608 169.768 67.89 169.272 69.3497C168.304 72.1123 168.307 75.623 169.98 78.0957C170.416 78.7553 170.988 79.3014 171.653 79.6928C172.318 80.0842 173.059 80.3105 173.818 80.3547C174.668 80.3929 175.52 80.3387 176.359 80.193C177.297 80.0608 178.235 79.9238 179.173 79.7891C181.238 79.4924 183.304 79.1605 185.392 79.3528C187.377 79.5411 189.31 80.124 191.09 81.0708C191.648 81.3664 192.141 80.4798 191.581 80.183Z" fill="#2F2E41"/>
<path d="M257.614 199H47.8408C47.7387 198.999 47.6408 198.956 47.5687 198.88C47.4965 198.803 47.4561 198.7 47.4561 198.592C47.4561 198.484 47.4965 198.38 47.5687 198.304C47.6408 198.227 47.7387 198.184 47.8408 198.184H257.614C257.716 198.184 257.814 198.227 257.886 198.304C257.959 198.38 257.999 198.484 257.999 198.592C257.999 198.7 257.959 198.803 257.886 198.88C257.814 198.956 257.716 198.999 257.614 199Z" fill="#3F3D56"/>
<path d="M105.974 56.2071C105.973 58.6135 105.828 61.0175 105.539 63.4044H0.758452C0.469387 61.0175 0.324355 58.6135 0.324238 56.2071C0.318283 48.8669 1.68024 41.5974 4.33226 34.8141C6.98428 28.0308 10.8744 21.8667 15.7802 16.6741C20.686 11.4816 26.5114 7.36237 32.9233 4.55193C39.3352 1.74149 46.2081 0.294922 53.1489 0.294922C60.0898 0.294922 66.9626 1.74149 73.3745 4.55193C79.7864 7.36237 85.6118 11.4816 90.5176 16.6741C95.4234 21.8667 99.3135 28.0308 101.966 34.8141C104.618 41.5974 105.98 48.8669 105.974 56.2071Z" fill="#F0F0F0"/>
<path d="M53.1488 112.414C26.4925 112.414 3.83124 91.3629 0.436879 63.4477C0.146723 61.0462 0.00080925 58.6277 1.94464e-05 56.2067C-0.00595416 48.8215 1.36437 41.5074 4.03267 34.6825C6.70097 27.8576 10.6149 21.6557 15.5508 16.4313C20.4868 11.2069 26.3478 7.06244 32.7991 4.23477C39.2504 1.40709 46.1653 -0.0483398 53.1488 -0.0483398C60.1322 -0.0483398 67.0471 1.40709 73.4984 4.23477C79.9497 7.06244 85.8108 11.2069 90.7467 16.4313C95.6826 21.6557 99.5966 27.8576 102.265 34.6825C104.933 41.5074 106.303 48.8215 106.298 56.2067C106.297 58.6277 106.151 61.0461 105.861 63.4475C102.466 91.3629 79.8051 112.414 53.1488 112.414ZM53.1488 0.685213C28.6595 0.685213 7.09057 19.0214 1.86248 44.2847C1.05379 48.201 0.64667 52.1981 0.648175 56.2067C0.648969 58.5986 0.793127 60.9879 1.07978 63.3605C4.43268 90.9345 26.8175 111.728 53.1488 111.728C79.4801 111.728 101.865 90.9345 105.218 63.3603C105.504 60.9878 105.649 58.5985 105.649 56.2067C105.651 52.1981 105.244 48.201 104.435 44.2847C99.207 19.0214 77.638 0.685213 53.1488 0.685213Z" fill="#3F3D56"/>
<path d="M86.5059 73.9116H19.7918C19.4676 73.9116 19.1566 74.0478 18.9274 74.2903C18.6981 74.5327 18.5693 74.8616 18.5693 75.2044C18.5693 75.5473 18.6981 75.8761 18.9274 76.1186C19.1566 76.361 19.4676 76.4972 19.7918 76.4972H86.5059C86.8297 76.4967 87.1402 76.3602 87.369 76.1178C87.5978 75.8755 87.7263 75.5469 87.7263 75.2044C87.7263 74.8619 87.5978 74.5334 87.369 74.291C87.1402 74.0486 86.8297 73.9122 86.5059 73.9116Z" fill="#CACACA"/>
<path d="M63.6865 73.9116V76.4972H19.7918C19.4679 76.4967 19.1575 76.3602 18.9286 76.1178C18.6998 75.8755 18.5713 75.5469 18.5713 75.2044C18.5713 74.8619 18.6998 74.5334 18.9286 74.291C19.1575 74.0486 19.4679 73.9122 19.7918 73.9116H63.6865Z" fill="#778DA9"/>
<path d="M63.6866 77.7904C65.0369 77.7904 66.1316 76.6327 66.1316 75.2048C66.1316 73.7768 65.0369 72.6191 63.6866 72.6191C62.3363 72.6191 61.2417 73.7768 61.2417 75.2048C61.2417 76.6327 62.3363 77.7904 63.6866 77.7904Z" fill="#778DA9"/>
<path d="M53.1488 99.6382C51.9398 99.6382 50.758 99.2591 49.7528 98.5488C48.7476 97.8385 47.9641 96.8289 47.5014 95.6477C47.0388 94.4664 46.9177 93.1667 47.1536 91.9127C47.3894 90.6587 47.9716 89.5069 48.8265 88.6028C49.6814 87.6988 50.7705 87.0831 51.9563 86.8337C53.142 86.5843 54.371 86.7123 55.488 87.2015C56.6049 87.6908 57.5596 88.5194 58.2313 89.5824C58.9029 90.6455 59.2614 91.8953 59.2614 93.1738C59.2596 94.8877 58.615 96.5308 57.469 97.7427C56.3231 98.9546 54.7694 99.6363 53.1488 99.6382ZM53.1488 87.2067C52.0328 87.2067 50.9419 87.5567 50.014 88.2124C49.0861 88.868 48.3629 89.8 47.9358 90.8903C47.5088 91.9807 47.397 93.1805 47.6148 94.338C47.8325 95.4955 48.3699 96.5587 49.159 97.3932C49.9481 98.2277 50.9535 98.7961 52.048 99.0263C53.1425 99.2565 54.277 99.1384 55.308 98.6867C56.3391 98.2351 57.2203 97.4703 57.8403 96.489C58.4603 95.5077 58.7912 94.354 58.7912 93.1738C58.7895 91.5918 58.1945 90.0751 57.1367 88.9565C56.0789 87.8378 54.6447 87.2085 53.1488 87.2067Z" fill="#778DA9"/>
<path d="M52.3415 96.655C52.2792 96.655 52.2194 96.6288 52.1753 96.5822C52.1312 96.5355 52.1064 96.4723 52.1064 96.4064V89.942C52.1064 89.9093 52.1125 89.877 52.1243 89.8468C52.1362 89.8167 52.1535 89.7893 52.1753 89.7662C52.1971 89.7431 52.223 89.7248 52.2516 89.7123C52.2801 89.6998 52.3107 89.6934 52.3415 89.6934C52.3724 89.6934 52.403 89.6998 52.4315 89.7123C52.46 89.7248 52.486 89.7431 52.5078 89.7662C52.5296 89.7893 52.5469 89.8167 52.5587 89.8468C52.5706 89.877 52.5766 89.9093 52.5766 89.942V96.4064C52.5766 96.4723 52.5519 96.5355 52.5078 96.5822C52.4637 96.6288 52.4039 96.655 52.3415 96.655Z" fill="#778DA9"/>
<path d="M53.9558 96.655C53.8935 96.655 53.8337 96.6288 53.7896 96.5822C53.7455 96.5355 53.7207 96.4723 53.7207 96.4064V89.942C53.7207 89.9093 53.7268 89.877 53.7386 89.8468C53.7504 89.8167 53.7677 89.7893 53.7896 89.7662C53.8114 89.7431 53.8373 89.7248 53.8658 89.7123C53.8944 89.6998 53.9249 89.6934 53.9558 89.6934C53.9867 89.6934 54.0173 89.6998 54.0458 89.7123C54.0743 89.7248 54.1002 89.7431 54.1221 89.7662C54.1439 89.7893 54.1612 89.8167 54.173 89.8468C54.1848 89.877 54.1909 89.9093 54.1909 89.942V96.4064C54.1909 96.4723 54.1661 96.5355 54.122 96.5822C54.078 96.6288 54.0182 96.655 53.9558 96.655Z" fill="#778DA9"/>
<path d="M25.1514 93.1738C25.1514 91.8953 25.5099 90.6455 26.1815 89.5824C26.8532 88.5194 27.8079 87.6908 28.9248 87.2015C30.0417 86.7123 31.2708 86.5843 32.4565 86.8337C33.6423 87.0831 34.7314 87.6988 35.5863 88.6028C36.4412 89.5069 37.0233 90.6587 37.2592 91.9127C37.4951 93.1667 37.374 94.4664 36.9114 95.6476C36.4487 96.8289 35.6652 97.8385 34.66 98.5488C33.6548 99.2591 32.473 99.6382 31.264 99.6382C29.6434 99.6363 28.0897 98.9546 26.9437 97.7427C25.7978 96.5308 25.1532 94.8877 25.1514 93.1738ZM25.6216 93.1738C25.6216 94.354 25.9525 95.5077 26.5725 96.489C27.1925 97.4703 28.0737 98.2351 29.1047 98.6867C30.1358 99.1384 31.2703 99.2565 32.3648 99.0263C33.4593 98.7961 34.4647 98.2277 35.2538 97.3932C36.0429 96.5587 36.5803 95.4955 36.798 94.338C37.0158 93.1805 36.904 91.9807 36.4769 90.8903C36.0499 89.8 35.3267 88.868 34.3988 88.2124C33.4709 87.5567 32.38 87.2067 31.264 87.2067C29.7681 87.2085 28.3339 87.8378 27.2761 88.9564C26.2183 90.0751 25.6233 91.5918 25.6216 93.1738Z" fill="#3F3D56"/>
<path d="M33.9042 95.3506C33.9472 95.3506 33.9891 95.3356 34.0233 95.3079C34.0574 95.2802 34.082 95.2414 34.0932 95.1974C34.1043 95.1534 34.1015 95.1068 34.085 95.0647C34.0685 95.0226 34.0394 94.9875 34.0021 94.9647L31.0694 93.1741L34.0021 91.3836C34.0468 91.356 34.0794 91.3109 34.0927 91.258C34.106 91.2051 34.0989 91.1488 34.0731 91.1015C34.0472 91.0541 34.0047 91.0195 33.9547 91.0052C33.9048 90.9909 33.8515 90.9982 33.8066 91.0254L30.5807 92.995C30.5509 93.0132 30.5263 93.0393 30.5091 93.0707C30.4919 93.1022 30.4829 93.1378 30.4829 93.1741C30.4829 93.2104 30.4919 93.2461 30.5091 93.2775C30.5263 93.309 30.5509 93.3351 30.5807 93.3532L33.8066 95.3229C33.8363 95.3411 33.8699 95.3506 33.9042 95.3506Z" fill="#3F3D56"/>
<path d="M29.5788 96.0685C29.6307 96.0685 29.6804 96.0467 29.7171 96.0079C29.7537 95.9691 29.7743 95.9166 29.7743 95.8617V90.4859C29.7744 90.4587 29.7695 90.4317 29.7597 90.4065C29.7499 90.3814 29.7355 90.3585 29.7173 90.3392C29.6992 90.3199 29.6776 90.3046 29.6538 90.2941C29.63 90.2837 29.6046 90.2783 29.5788 90.2783C29.5531 90.2783 29.5276 90.2837 29.5038 90.2941C29.48 90.3046 29.4585 90.3199 29.4403 90.3392C29.4221 90.3585 29.4077 90.3814 29.398 90.4065C29.3882 90.4317 29.3832 90.4587 29.3833 90.4859V95.8617C29.3833 95.9166 29.4039 95.9691 29.4406 96.0079C29.4772 96.0467 29.527 96.0685 29.5788 96.0685Z" fill="#3F3D56"/>
<path d="M75.0335 99.6382C73.8246 99.6382 72.6428 99.2591 71.6375 98.5488C70.6323 97.8385 69.8488 96.8289 69.3862 95.6476C68.9235 94.4664 68.8025 93.1667 69.0384 91.9127C69.2742 90.6587 69.8564 89.5069 70.7113 88.6028C71.5661 87.6988 72.6553 87.0831 73.841 86.8337C75.0268 86.5843 76.2558 86.7123 77.3728 87.2015C78.4897 87.6908 79.4444 88.5194 80.116 89.5824C80.7877 90.6455 81.1462 91.8953 81.1462 93.1738C81.1444 94.8877 80.4998 96.5308 79.3538 97.7427C78.2079 98.9546 76.6542 99.6363 75.0335 99.6382ZM75.0335 87.2067C73.9176 87.2067 72.8267 87.5567 71.8988 88.2124C70.9709 88.868 70.2477 89.8 69.8206 90.8903C69.3935 91.9807 69.2818 93.1805 69.4995 94.338C69.7172 95.4955 70.2546 96.5587 71.0437 97.3932C71.8328 98.2277 72.8382 98.7961 73.9328 99.0263C75.0273 99.2565 76.1618 99.1384 77.1928 98.6867C78.2238 98.2351 79.1051 97.4703 79.7251 96.489C80.3451 95.5077 80.676 94.354 80.676 93.1738C80.6743 91.5918 80.0793 90.0751 79.0215 88.9564C77.9637 87.8378 76.5295 87.2085 75.0335 87.2067Z" fill="#3F3D56"/>
<path d="M72.3935 95.3506C72.3504 95.3506 72.3085 95.3356 72.2744 95.3079C72.2402 95.2802 72.2156 95.2414 72.2044 95.1974C72.1933 95.1534 72.1962 95.1068 72.2126 95.0647C72.2291 95.0226 72.2582 94.9875 72.2955 94.9647L75.2282 93.1741L72.2955 91.3836C72.2508 91.356 72.2182 91.3109 72.2049 91.258C72.1916 91.2051 72.1987 91.1488 72.2245 91.1015C72.2504 91.0541 72.293 91.0195 72.3429 91.0052C72.3929 90.9909 72.4461 90.9982 72.491 91.0254L75.717 92.995C75.7467 93.0132 75.7714 93.0393 75.7885 93.0707C75.8057 93.1022 75.8147 93.1378 75.8147 93.1741C75.8147 93.2104 75.8057 93.2461 75.7885 93.2775C75.7714 93.309 75.7467 93.3351 75.717 93.3532L72.491 95.3229C72.4614 95.3411 72.4277 95.3506 72.3935 95.3506Z" fill="#3F3D56"/>
<path d="M76.7189 96.0685C76.6671 96.0685 76.6174 96.0467 76.5807 96.0079C76.544 95.9691 76.5234 95.9166 76.5234 95.8617V90.4859C76.5233 90.4587 76.5283 90.4317 76.5381 90.4065C76.5479 90.3814 76.5623 90.3585 76.5804 90.3392C76.5986 90.3199 76.6202 90.3046 76.6439 90.2941C76.6677 90.2837 76.6932 90.2783 76.7189 90.2783C76.7447 90.2783 76.7702 90.2837 76.794 90.2941C76.8177 90.3046 76.8393 90.3199 76.8575 90.3392C76.8756 90.3585 76.89 90.3814 76.8998 90.4065C76.9096 90.4317 76.9146 90.4587 76.9145 90.4859V95.8617C76.9145 95.9166 76.8939 95.9691 76.8572 96.0079C76.8205 96.0467 76.7708 96.0685 76.7189 96.0685Z" fill="#3F3D56"/>
<path d="M65.2823 50.8949H49.4408C48.4047 50.8937 47.4113 50.4579 46.6787 49.6831C45.946 48.9082 45.5339 47.8577 45.5327 46.762V30.0089C45.5339 28.9132 45.946 27.8627 46.6787 27.0879C47.4113 26.313 48.4047 25.8772 49.4408 25.876H65.2823C66.3184 25.8772 67.3118 26.313 68.0444 27.0879C68.7771 27.8627 69.1892 28.9132 69.1904 30.0089V46.762C69.1892 47.8577 68.7771 48.9082 68.0444 49.6831C67.3118 50.4579 66.3184 50.8937 65.2823 50.8949Z" fill="white"/>
<path d="M59.125 45.9252H43.2835C42.2044 45.9239 41.1699 45.47 40.4068 44.663C39.6438 43.8561 39.2146 42.762 39.2134 41.6208V24.8678C39.2146 23.7266 39.6438 22.6325 40.4068 21.8256C41.1699 21.0187 42.2044 20.5648 43.2835 20.5635H59.125C60.2041 20.5648 61.2386 21.0187 62.0017 21.8256C62.7647 22.6325 63.1939 23.7266 63.1951 24.8678V41.6208C63.1939 42.762 62.7647 43.8561 62.0017 44.663C61.2386 45.47 60.2041 45.9239 59.125 45.9252ZM43.2835 21.2489C42.3763 21.25 41.5065 21.6316 40.8649 22.3101C40.2234 22.9885 39.8626 23.9083 39.8615 24.8678V41.6208C39.8626 42.5803 40.2234 43.5001 40.8649 44.1786C41.5065 44.857 42.3763 45.2386 43.2835 45.2397H59.125C60.0323 45.2386 60.902 44.857 61.5436 44.1786C62.1851 43.5001 62.5459 42.5803 62.547 41.6208V24.8678C62.5459 23.9083 62.1851 22.9885 61.5436 22.3101C60.902 21.6316 60.0323 21.25 59.125 21.2489H43.2835Z" fill="white"/>
</g>
<defs>
<clipPath id="clip0_175_1375">
<rect width="258" height="199" fill="white"/>
</clipPath>
</defs>
</svg>
