<svg width="104" height="137" viewBox="0 0 104 137" fill="none" xmlns="http://www.w3.org/2000/svg">
<path d="M0 8C0 3.58172 3.58172 0 8 0H85C89.4183 0 93 3.58172 93 8V117C93 121.418 89.4183 125 85 125H8C3.58172 125 0 121.418 0 117V8Z" fill="#1B263B"/>
<rect x="11" y="25" width="68" height="4" rx="2" fill="#778DA9"/>
<rect x="11" y="34" width="68" height="4" rx="2" fill="#778DA9"/>
<rect x="11" y="43" width="44" height="4" rx="2" fill="#778DA9"/>
<path d="M104 112.5C104 126.031 93.031 137 79.5 137C65.969 137 55 126.031 55 112.5C55 98.969 65.969 88 79.5 88C93.031 88 104 98.969 104 112.5Z" fill="#D9D9D9"/>
<g clip-path="url(#clip0_8_124)">
<path fill-rule="evenodd" clip-rule="evenodd" d="M93.9999 124.266L91.8789 126.286L85.5144 120.226L87.6355 118.204L93.9999 124.266ZM75.9999 117.714C71.0379 117.714 66.9999 113.87 66.9999 109.143C66.9999 104.417 71.0379 100.571 75.9999 100.571C80.9619 100.571 85 104.417 85 109.143C85 113.87 80.9619 117.714 75.9999 117.714ZM75.9999 97.7144C69.3729 97.7144 63.9999 102.831 63.9999 109.143C63.9999 115.454 69.3729 120.571 75.9999 120.571C82.6269 120.571 87.9999 115.454 87.9999 109.143C87.9999 102.831 82.6269 97.7144 75.9999 97.7144Z" fill="#415A77"/>
</g>
<defs>
<clipPath id="clip0_8_124">
<rect width="30" height="30" fill="white" transform="translate(64 97)"/>
</clipPath>
</defs>
</svg>
