<svg width="127" height="159" viewBox="0 0 127 159" fill="none" xmlns="http://www.w3.org/2000/svg">
<rect width="121" height="152" rx="10" fill="#202020"/>
<path d="M0 10C0 4.47715 4.47715 0 10 0H111C116.523 0 121 4.47715 121 10V40H0V10Z" fill="url(#paint0_linear_7_40)"/>
<path d="M33.4416 22.02V29H32.0416V24.46L30.1716 29H29.1116L27.2316 24.46V29H25.8316V22.02H27.4216L29.6416 27.21L31.8616 22.02H33.4416ZM40.1257 23.46L36.6957 31.62H35.2057L36.4057 28.86L34.1857 23.46H35.7557L37.1857 27.33L38.6357 23.46H40.1257ZM44.6632 24.26C44.8432 24.0067 45.0899 23.7967 45.4032 23.63C45.7232 23.4567 46.0866 23.37 46.4932 23.37C46.9666 23.37 47.3932 23.4867 47.7732 23.72C48.1599 23.9533 48.4632 24.2867 48.6832 24.72C48.9099 25.1467 49.0232 25.6433 49.0232 26.21C49.0232 26.7767 48.9099 27.28 48.6832 27.72C48.4632 28.1533 48.1599 28.49 47.7732 28.73C47.3932 28.97 46.9666 29.09 46.4932 29.09C46.0866 29.09 45.7266 29.0067 45.4132 28.84C45.1066 28.6733 44.8566 28.4633 44.6632 28.21V31.64H43.2632V23.46H44.6632V24.26ZM47.5932 26.21C47.5932 25.8767 47.5232 25.59 47.3832 25.35C47.2499 25.1033 47.0699 24.9167 46.8432 24.79C46.6232 24.6633 46.3832 24.6 46.1232 24.6C45.8699 24.6 45.6299 24.6667 45.4032 24.8C45.1832 24.9267 45.0032 25.1133 44.8632 25.36C44.7299 25.6067 44.6632 25.8967 44.6632 26.23C44.6632 26.5633 44.7299 26.8533 44.8632 27.1C45.0032 27.3467 45.1832 27.5367 45.4032 27.67C45.6299 27.7967 45.8699 27.86 46.1232 27.86C46.3832 27.86 46.6232 27.7933 46.8432 27.66C47.0699 27.5267 47.2499 27.3367 47.3832 27.09C47.5232 26.8433 47.5932 26.55 47.5932 26.21ZM51.4406 21.6V29H50.0406V21.6H51.4406ZM52.4638 26.21C52.4638 25.65 52.5738 25.1533 52.7938 24.72C53.0205 24.2867 53.3238 23.9533 53.7038 23.72C54.0905 23.4867 54.5205 23.37 54.9938 23.37C55.4071 23.37 55.7671 23.4533 56.0738 23.62C56.3871 23.7867 56.6371 23.9967 56.8238 24.25V23.46H58.2338V29H56.8238V28.19C56.6438 28.45 56.3938 28.6667 56.0738 28.84C55.7605 29.0067 55.3971 29.09 54.9838 29.09C54.5171 29.09 54.0905 28.97 53.7038 28.73C53.3238 28.49 53.0205 28.1533 52.7938 27.72C52.5738 27.28 52.4638 26.7767 52.4638 26.21ZM56.8238 26.23C56.8238 25.89 56.7571 25.6 56.6238 25.36C56.4905 25.1133 56.3105 24.9267 56.0838 24.8C55.8571 24.6667 55.6138 24.6 55.3538 24.6C55.0938 24.6 54.8538 24.6633 54.6338 24.79C54.4138 24.9167 54.2338 25.1033 54.0938 25.35C53.9605 25.59 53.8938 25.8767 53.8938 26.21C53.8938 26.5433 53.9605 26.8367 54.0938 27.09C54.2338 27.3367 54.4138 27.5267 54.6338 27.66C54.8605 27.7933 55.1005 27.86 55.3538 27.86C55.6138 27.86 55.8571 27.7967 56.0838 27.67C56.3105 27.5367 56.4905 27.35 56.6238 27.11C56.7571 26.8633 56.8238 26.57 56.8238 26.23ZM64.9011 23.46L61.4711 31.62H59.9811L61.1811 28.86L58.9611 23.46H60.5311L61.9611 27.33L63.4111 23.46H64.9011ZM67.0558 21.6V29H65.6558V21.6H67.0558ZM69.149 22.8C68.9024 22.8 68.6957 22.7233 68.529 22.57C68.369 22.41 68.289 22.2133 68.289 21.98C68.289 21.7467 68.369 21.5533 68.529 21.4C68.6957 21.24 68.9024 21.16 69.149 21.16C69.3957 21.16 69.599 21.24 69.759 21.4C69.9257 21.5533 70.009 21.7467 70.009 21.98C70.009 22.2133 69.9257 22.41 69.759 22.57C69.599 22.7233 69.3957 22.8 69.149 22.8ZM69.839 23.46V29H68.439V23.46H69.839ZM73.3422 29.09C72.8889 29.09 72.4822 29.01 72.1222 28.85C71.7622 28.6833 71.4756 28.46 71.2622 28.18C71.0556 27.9 70.9422 27.59 70.9222 27.25H72.3322C72.3589 27.4633 72.4622 27.64 72.6422 27.78C72.8289 27.92 73.0589 27.99 73.3322 27.99C73.5989 27.99 73.8056 27.9367 73.9522 27.83C74.1056 27.7233 74.1822 27.5867 74.1822 27.42C74.1822 27.24 74.0889 27.1067 73.9022 27.02C73.7222 26.9267 73.4322 26.8267 73.0322 26.72C72.6189 26.62 72.2789 26.5167 72.0122 26.41C71.7522 26.3033 71.5256 26.14 71.3322 25.92C71.1456 25.7 71.0522 25.4033 71.0522 25.03C71.0522 24.7233 71.1389 24.4433 71.3122 24.19C71.4922 23.9367 71.7456 23.7367 72.0722 23.59C72.4056 23.4433 72.7956 23.37 73.2422 23.37C73.9022 23.37 74.4289 23.5367 74.8222 23.87C75.2156 24.1967 75.4322 24.64 75.4722 25.2H74.1322C74.1122 24.98 74.0189 24.8067 73.8522 24.68C73.6922 24.5467 73.4756 24.48 73.2022 24.48C72.9489 24.48 72.7522 24.5267 72.6122 24.62C72.4789 24.7133 72.4122 24.8433 72.4122 25.01C72.4122 25.1967 72.5056 25.34 72.6922 25.44C72.8789 25.5333 73.1689 25.63 73.5622 25.73C73.9622 25.83 74.2922 25.9333 74.5522 26.04C74.8122 26.1467 75.0356 26.3133 75.2222 26.54C75.4156 26.76 75.5156 27.0533 75.5222 27.42C75.5222 27.74 75.4322 28.0267 75.2522 28.28C75.0789 28.5333 74.8256 28.7333 74.4922 28.88C74.1656 29.02 73.7822 29.09 73.3422 29.09ZM78.3014 24.61V27.29C78.3014 27.4767 78.3448 27.6133 78.4314 27.7C78.5248 27.78 78.6781 27.82 78.8914 27.82H79.5414V29H78.6614C77.4814 29 76.8914 28.4267 76.8914 27.28V24.61H76.2314V23.46H76.8914V22.09H78.3014V23.46H79.5414V24.61H78.3014Z" fill="white"/>
<rect x="7" y="19" width="13" height="13" rx="2" fill="#0D1B2A"/>
<rect x="6" y="47" width="109" height="98" rx="4" fill="#1B1B1B"/>
<rect x="6" y="47" width="109" height="98" rx="4" fill="#1B1B1B"/>
<rect x="11" y="52" width="21" height="1" rx="0.5" fill="#656565"/>
<rect x="11" y="54" width="35" height="1" rx="0.5" fill="#656565"/>
<rect x="11" y="60" width="21" height="1" rx="0.5" fill="#656565"/>
<rect x="11" y="62" width="35" height="1" rx="0.5" fill="#656565"/>
<rect x="11" y="68" width="21" height="1" rx="0.5" fill="#656565"/>
<rect x="11" y="70" width="35" height="1" rx="0.5" fill="#656565"/>
<rect x="11" y="76" width="21" height="1" rx="0.5" fill="#656565"/>
<rect x="11" y="78" width="35" height="1" rx="0.5" fill="#656565"/>
<rect x="11" y="84" width="21" height="1" rx="0.5" fill="#656565"/>
<rect x="11" y="86" width="35" height="1" rx="0.5" fill="#656565"/>
<rect x="11" y="92" width="21" height="1" rx="0.5" fill="#656565"/>
<rect x="11" y="94" width="35" height="1" rx="0.5" fill="#656565"/>
<rect x="11" y="100" width="21" height="1" rx="0.5" fill="#656565"/>
<rect x="11" y="102" width="35" height="1" rx="0.5" fill="#656565"/>
<rect x="11" y="108" width="21" height="1" rx="0.5" fill="#656565"/>
<rect x="11" y="110" width="35" height="1" rx="0.5" fill="#656565"/>
<rect x="11" y="116" width="21" height="1" rx="0.5" fill="#656565"/>
<rect x="11" y="118" width="35" height="1" rx="0.5" fill="#656565"/>
<rect x="11" y="124" width="21" height="1" rx="0.5" fill="#656565"/>
<rect x="11" y="126" width="35" height="1" rx="0.5" fill="#656565"/>
<rect x="11" y="132" width="21" height="1" rx="0.5" fill="#656565"/>
<rect x="11" y="134" width="35" height="1" rx="0.5" fill="#656565"/>
<g clip-path="url(#clip0_7_40)">
<path fill-rule="evenodd" clip-rule="evenodd" d="M118.8 136.8C112.4 133 101.7 132.6 95.6 134.5C94.6 134.8 93.6 134.2 93.3 133.3C93 132.3 93.6 131.3 94.5 131C101.6 128.9 113.3 129.3 120.7 133.7C121.6 134.2 121.9 135.4 121.4 136.3C120.9 137 119.7 137.3 118.8 136.8ZM118.6 142.4C118.1 143.1 117.2 143.4 116.5 142.9C111.1 139.6 102.9 138.6 96.6 140.6C95.8 140.8 94.9 140.4 94.7 139.6C94.5 138.8 94.9 137.9 95.7 137.7C103 135.5 112 136.6 118.2 140.4C118.8 140.7 119.1 141.7 118.6 142.4ZM116.2 147.9C115.8 148.5 115.1 148.7 114.5 148.3C109.8 145.4 103.9 144.8 96.9 146.4C96.2 146.6 95.6 146.1 95.4 145.5C95.2 144.8 95.7 144.2 96.3 144C103.9 142.3 110.5 143 115.7 146.2C116.4 146.5 116.5 147.3 116.2 147.9ZM107 119C96 119 87 128 87 139C87 150 96 159 107 159C118 159 127 150 127 139C127 128 118.1 119 107 119Z" fill="#00DA5A"/>
</g>
<defs>
<linearGradient id="paint0_linear_7_40" x1="60.5" y1="0" x2="60.5" y2="40" gradientUnits="userSpaceOnUse">
<stop stop-color="#415A77"/>
<stop offset="1" stop-color="#1B263B"/>
</linearGradient>
<clipPath id="clip0_7_40">
<rect width="40" height="40" fill="white" transform="translate(87 119)"/>
</clipPath>
</defs>
</svg>
