<svg width="106" height="135" viewBox="0 0 106 135" fill="none" xmlns="http://www.w3.org/2000/svg">
<rect y="54" width="100" height="75" rx="10" fill="#1B263B"/>
<path fill-rule="evenodd" clip-rule="evenodd" d="M96.57 110.58C89.21 106.4 76.905 105.96 69.89 108.05C68.74 108.38 67.59 107.72 67.245 106.73C66.9 105.63 67.59 104.53 68.625 104.2C76.79 101.89 90.245 102.33 98.755 107.17C99.79 107.72 100.135 109.04 99.56 110.03C98.985 110.8 97.605 111.13 96.57 110.58ZM96.34 116.74C95.765 117.51 94.73 117.84 93.925 117.29C87.715 113.66 78.285 112.56 71.04 114.76C70.12 114.98 69.085 114.54 68.855 113.66C68.625 112.78 69.085 111.79 70.005 111.57C78.4 109.15 88.75 110.36 95.88 114.54C96.57 114.87 96.915 115.97 96.34 116.74ZM93.58 122.79C93.12 123.45 92.315 123.67 91.625 123.23C86.22 120.04 79.435 119.38 71.385 121.14C70.58 121.36 69.89 120.81 69.66 120.15C69.43 119.38 70.005 118.72 70.695 118.5C79.435 116.63 87.025 117.4 93.005 120.92C93.81 121.25 93.925 122.13 93.58 122.79ZM83 91C70.35 91 60 100.9 60 113C60 125.1 70.35 135 83 135C95.65 135 106 125.1 106 113C106 100.9 95.765 91 83 91Z" fill="#00DA5A"/>
<path d="M17 54C17 -10.6239 83 -12.039 83 54" stroke="#415A77" stroke-width="10"/>
</svg>
